<svg width="36" height="40" viewBox="0 0 36 40" fill="none" xmlns="http://www.w3.org/2000/svg">
<path fill-rule="evenodd" clip-rule="evenodd" d="M35.4599 10.24L35.1799 9.73997C34.8187 9.13535 34.3093 8.63283 33.6999 8.27997L20.2799 0.539998C19.6723 0.187499 18.9825 0.00124 18.2799 0H17.6999C16.9973 0.00124 16.3075 0.187499 15.6999 0.539998L2.27999 8.29997C1.67393 8.65049 1.17052 9.15391 0.819997 9.75997L0.539998 10.26C0.187499 10.8676 0.00124 11.5574 0 12.26V27.7599C0.00124 28.4625 0.187499 29.1523 0.539998 29.7599L0.819997 30.2599C1.17958 30.8589 1.68097 31.3603 2.27999 31.7199L15.7199 39.4599C16.3245 39.8197 17.0163 40.0065 17.7199 39.9999H18.2799C18.9825 39.9987 19.6723 39.8125 20.2799 39.4599L33.6999 31.6999C34.3119 31.3573 34.8173 30.8519 35.1599 30.2399L35.4599 29.7399C35.8081 29.1305 35.9941 28.4419 35.9999 27.7399V12.24C35.9987 11.5374 35.8125 10.8476 35.4599 10.24ZM17.6999 3.99999H18.2799L29.9999 10.76L17.9999 17.6799L5.99998 10.76L17.6999 3.99999ZM19.9999 34.9999L31.6999 28.2399L31.9999 27.7399V14.22L19.9999 21.1599V34.9999Z" fill="#000400"/>
</svg>
