<svg width="22" height="17" viewBox="0 0 22 17" fill="none" xmlns="http://www.w3.org/2000/svg">
<path d="M20.8262 5.77356C20.296 5.77356 19.8417 6.03864 19.5387 6.75808C18.5543 9.25717 16.5094 13.4981 14.4268 13.4981C13.1155 13.4981 12.1007 13.2016 11.0752 12.9018C10.028 12.5958 8.96975 12.2864 7.57316 12.2864C7.0809 12.2864 6.39932 12.3622 5.7556 12.4758C7.69487 9.83134 8.41934 6.6287 9.12134 0.574982C7.79956 0.490833 6.72436 0.246639 5.94065 0C5.1036 7.67781 4.15304 10.6053 0.681581 13.4981C0.227191 13.8768 0 14.407 0 14.9371C0 15.7701 0.719453 16.4896 1.62824 16.4896C1.93116 16.4896 2.27194 16.376 2.61274 16.2245C4.5439 15.3536 5.71773 15.1264 7.15663 15.1264C8.07164 15.1264 9.16654 15.3881 10.3388 15.6682C11.689 15.9909 13.1419 16.3381 14.5405 16.3381C17.6076 16.3381 19.6145 13.3467 21.8485 7.55321C21.9622 7.36393 22 7.13675 22 6.94736C22 6.22792 21.432 5.77356 20.8262 5.77356Z" fill="#000400"/>
</svg>
