<svg width="19" height="16" viewBox="0 0 19 16" fill="none" xmlns="http://www.w3.org/2000/svg">
<path d="M16.4848 6.22843L16.4475 6.26576C16.7085 5.55713 17.2307 5.29604 17.6782 5.29604C18.3123 5.29604 18.8717 5.7809 18.8717 6.48953C18.8717 6.63874 18.8717 6.82518 18.7972 7.04894C17.4918 10.4056 14.7319 12.1212 12.0466 12.3823C10.8158 14.4709 8.80185 16 5.93001 16C1.82746 16 0 12.7553 0 9.21215C0 4.84851 2.75985 0 7.38459 0C8.39154 0 9.24938 0.223867 9.95801 0.522189C12.0466 1.30537 13.3893 4.028 13.3893 6.93706C13.3893 7.86945 13.3146 8.80185 13.0908 9.69701C14.4709 9.21215 15.7761 8.09322 16.4848 6.22843ZM8.68996 3.05828V3.02105C7.86945 3.02105 7.38459 4.10255 7.38459 5.40792C7.38459 7.31004 8.42887 9.06294 10.0699 9.69701C10.331 8.8765 10.4429 7.94411 10.4429 6.8625C10.4429 4.77395 9.80879 3.05828 8.68996 3.05828ZM5.96734 13.2774C7.01162 13.2774 8.05589 12.8298 8.8764 11.8975C6.4522 10.8158 4.92306 8.27976 4.92306 5.85546C4.92306 5.03495 5.07227 4.17721 5.29604 3.43125C3.80423 4.66207 2.94639 7.08627 2.94639 9.21215C2.94639 11.972 4.25176 13.2774 5.96734 13.2774Z" fill="#000400"/>
</svg>
