<svg width="16" height="10" viewBox="0 0 16 10" fill="none" xmlns="http://www.w3.org/2000/svg">
<path fill-rule="evenodd" clip-rule="evenodd" d="M5.14848 9.20466C5.86038 9.45317 6.97178 9.74251 8.41277 9.8281L8.64863 9.82799C13.0909 9.82799 16 7.07615 16 3.77394C16 1.6511 14.3489 0 12.0294 0C8.92382 0 6.76167 2.12285 5.66093 6.32922C4.28502 5.5823 3.34153 4.24569 2.86978 2.55528C2.63391 1.72973 2.12286 1.21866 1.41523 1.21866C0.550373 1.21866 0 1.88698 0 2.79115C0 5.46437 2.08354 8.01964 5.14987 9.199L5.14848 9.20466ZM8.8845 6.95821C9.47415 4.24569 10.4177 2.9484 11.6757 2.9484C12.344 2.9484 12.7764 3.34152 12.7764 4.04914C12.7764 5.34643 11.4005 6.87959 8.8845 6.95821Z" fill="#000400"/>
</svg>
