<svg width="20" height="25" viewBox="0 0 20 25" fill="none" xmlns="http://www.w3.org/2000/svg">
<path d="M17.2817 5.83579L17.244 5.87347C17.5076 5.15811 17.9594 4.85695 18.4112 4.85695C19.0513 4.85695 19.6913 5.42168 19.6913 6.13705C19.6913 6.32526 19.6537 6.4759 19.5783 6.66411C18.11 10.2409 15.9262 14.4202 12.4247 16.8675L12.3495 17.6205C11.9353 22.1386 9.63863 25 6.73948 25C4.55569 25 3.27558 23.494 3.27558 21.7244C3.27558 18.5241 6.55116 17.3569 9.60095 15.3992C9.67621 14.6084 9.7139 13.7048 9.75148 12.6882C8.24548 14.3448 6.62653 15.0226 5.19579 15.0226C2.33432 15.0226 0 12.6882 0 9.11147C0 3.61442 3.61442 0 7.64306 0H7.68074C10.4293 0 13.366 1.46832 13.366 4.1039C13.366 4.96989 12.9895 9.67621 12.6883 13.3283C14.7214 11.4081 16.4157 8.28316 17.2817 5.83579ZM5.6099 12.3118C7.00305 12.3118 8.88558 11.4458 10.0527 7.19126C10.2409 6.25 10.3539 5.42168 10.3163 4.44274C10.0904 3.42621 9.22442 2.82379 7.9819 2.82379C5.42169 2.82379 2.97442 5.27105 2.97442 8.99852C2.97442 11.2576 4.02863 12.3118 5.6099 12.3118ZM7.04063 22.2516H7.07832C7.86895 22.2516 8.73495 21.7244 9.29969 18.3359C7.64305 19.3147 6.09937 20.2937 6.09937 21.4608C6.09937 21.9503 6.4759 22.2516 7.04063 22.2516Z" fill="#000400"/>
</svg>
